<svg width="153" height="38" viewBox="0 0 153 38" fill="none" xmlns="http://www.w3.org/2000/svg">
<path d="M37.5616 19.0003C37.5616 24.0221 35.5829 28.8383 32.0608 32.3892C28.5387 35.9402 23.7618 37.9351 18.7808 37.9351C13.7998 37.9351 9.02284 35.9402 5.50076 32.3892C1.97868 28.8383 0 24.0221 0 19.0003C0 13.9784 1.97868 9.16229 5.50076 5.61132C9.02284 2.06034 13.7998 0.0654297 18.7808 0.0654297C23.7618 0.0654297 28.5387 2.06034 32.0608 5.61132C35.5829 9.16229 37.5616 13.9784 37.5616 19.0003Z" fill="#bcbdc1"/>
<path d="M18.9349 29.5534C13.7741 29.5718 8.40424 25.1381 8.37698 18.002C8.36789 13.2843 10.8938 8.74984 14.1102 6.05664C17.2631 3.42756 21.5699 1.75118 25.4769 1.73286C25.9328 1.71556 26.3888 1.76493 26.8307 1.87943C25.1153 2.2606 23.5776 3.214 22.4663 4.58544C21.355 5.95688 20.735 7.66618 20.7067 9.43688C20.7067 9.56513 20.7067 9.69338 20.7249 9.74834C26.4491 11.1499 29.0386 14.6309 29.0567 19.4494C29.0532 20.7837 28.7882 22.1042 28.2771 23.3351C27.7659 24.5659 27.0186 25.6828 26.0781 26.6217C25.1376 27.5605 24.0224 28.3028 22.7966 28.806C21.5707 29.3091 20.2584 29.5631 18.9349 29.5534Z" fill="white"/>
<path d="M49.6913 26.8416L43.958 13.0183H47.7105L51.2995 22.1972L54.7704 13.0183H58.3502L52.7714 26.8416H49.6913ZM68.3358 19.8612C68.3399 19.3052 68.2727 18.751 68.1359 18.2123C68.0202 17.7356 67.8168 17.2851 67.5362 16.8841C67.2833 16.5205 66.9546 16.2172 66.5731 15.9955C66.166 15.7639 65.7047 15.6468 65.2374 15.6565C64.7701 15.6463 64.3087 15.7634 63.9018 15.9955C63.5163 16.2152 63.1841 16.5187 62.9296 16.8841C62.6512 17.2885 62.4508 17.7423 62.339 18.2215C62.2029 18.7572 62.1357 19.3083 62.1391 19.8612C62.1345 20.4173 62.2017 20.9716 62.339 21.5101C62.4534 21.9854 62.647 22.4376 62.9114 22.8476C63.1628 23.234 63.507 23.5501 63.9121 23.7663C64.3172 23.9825 64.77 24.0919 65.2283 24.0842C65.6865 24.0983 66.1403 23.9916 66.5451 23.7747C66.9498 23.5578 67.2914 23.2383 67.5362 22.8476C67.8128 22.4443 68.0159 21.9945 68.1359 21.5193C68.2739 20.9778 68.3411 20.4203 68.3358 19.8612ZM71.7975 19.8704C71.7977 20.7719 71.6597 21.6679 71.3887 22.527C71.1243 23.3744 70.7086 24.1661 70.162 24.8629C69.5759 25.6062 68.8251 26.2006 67.9698 26.5983C67.1146 26.996 66.1787 27.186 65.2374 27.153C64.2951 27.1838 63.3587 26.9929 62.5023 26.5954C61.6459 26.1979 60.8932 25.6047 60.3037 24.8629C59.7583 24.1653 59.3427 23.3739 59.0771 22.527C58.5372 20.8071 58.5372 18.9611 59.0771 17.2413C59.343 16.4029 59.7587 15.6205 60.3037 14.9329C60.8583 14.2448 61.5563 13.6881 62.3481 13.3023C63.2501 12.8711 64.2394 12.6578 65.2374 12.6794C66.1728 12.6533 67.1018 12.8427 67.9536 13.2332C68.8054 13.6237 69.5576 14.205 70.153 14.9329C70.6981 15.6107 71.1161 16.3802 71.3887 17.2413C71.6612 18.1024 71.7975 18.9818 71.7975 19.8704ZM82.3918 16.0688C81.7899 15.8131 81.1458 15.6733 80.4928 15.6565C79.9824 15.6316 79.4738 15.7359 79.0136 15.9599C78.5534 16.1839 78.156 16.5205 77.8579 16.939C77.5709 17.3411 77.3557 17.7906 77.2219 18.2673C77.0809 18.7585 77.0105 19.2675 77.0129 19.7788C77.0098 20.3337 77.0707 20.887 77.1946 21.4277C77.3038 21.9161 77.4976 22.3812 77.767 22.8018C78.0124 23.1888 78.3417 23.5145 78.7301 23.7545C79.1118 23.9926 79.5751 24.1209 80.093 24.1209C80.5612 24.1104 81.0198 23.9846 81.4287 23.7545C81.8205 23.5683 82.1538 23.2766 82.3918 22.9117V16.0688ZM82.6735 26.8416L82.5372 25.7789C82.1752 26.1754 81.744 26.5015 81.2651 26.7408C80.5707 27.0403 79.8186 27.1793 79.0639 27.1476C78.3092 27.1159 77.5712 26.9143 76.9039 26.5576C76.1884 26.1607 75.5681 25.6104 75.0867 24.9453C74.5782 24.246 74.1968 23.4613 73.96 22.6277C73.7048 21.7344 73.5763 20.8092 73.5784 19.8796C73.5784 18.9727 73.7056 18.0932 73.9691 17.2322C74.2254 16.3961 74.6353 15.6162 75.1775 14.9329C75.7632 14.2008 76.5097 13.6161 77.3581 13.225C78.2065 12.8339 79.1335 12.6471 80.0658 12.6794C80.7927 12.6794 81.565 12.8168 82.3918 13.0824V7.72352H85.9172V26.8416H82.6735ZM95.8391 20.3559C95.0618 20.4084 94.2882 20.5063 93.5222 20.649C92.7589 20.8048 92.2319 21.0613 91.9321 21.4368C91.6514 21.7799 91.4973 22.2105 91.496 22.6552C91.496 23.1132 91.6595 23.4797 91.9957 23.7545C92.4027 24.0549 92.9004 24.2038 93.404 24.1759C93.8583 24.1759 94.3126 24.0842 94.7397 23.8919C95.1436 23.7141 95.5152 23.4695 95.8391 23.1682V20.3559ZM96.1208 26.8232L95.9845 25.7973C95.5815 26.2372 95.0843 26.5787 94.5307 26.7958C93.3664 27.2603 92.0739 27.2799 90.8963 26.8507C90.0508 26.5665 89.3182 26.0162 88.8062 25.2807C88.2942 24.5452 88.03 23.6634 88.0524 22.7651C88.0407 22.1602 88.1683 21.5607 88.4253 21.0139C88.6823 20.4671 89.0616 19.9879 89.5334 19.6139C90.0102 19.2399 90.5401 18.9404 91.1053 18.7253C92.1874 18.3384 93.3141 18.0921 94.458 17.9925L95.8209 17.8642V17.6627C95.8209 16.9024 95.621 16.3619 95.2303 16.0321C94.7648 15.6833 94.192 15.5113 93.613 15.5466C92.5832 15.5518 91.5803 15.8782 90.7418 16.481C90.5586 16.5983 90.3826 16.7268 90.2149 16.8657L89.0428 14.3741C89.605 13.944 90.2224 13.5927 90.8781 13.3298C92.586 12.614 94.4816 12.4915 96.2661 12.9817C96.8797 13.175 97.4412 13.5076 97.9074 13.9538C98.3736 14.4 98.7322 14.9481 98.9556 15.5558C99.2287 16.322 99.3581 17.1328 99.3372 17.9467V26.8324L96.1208 26.8232ZM110.231 10.8747C109.603 10.5913 108.92 10.4535 108.232 10.4717C107.751 10.4717 107.333 10.6182 107.006 10.9205C106.67 11.2137 106.506 11.6992 106.506 12.3679V13.0183H109.468V15.8856H106.533V26.8416H103.008V15.8856H101.191V13.0183H103.008V12.2855C103.008 11.3786 103.126 10.6182 103.353 9.99533C103.539 9.43735 103.851 8.9311 104.267 8.51739C104.682 8.10368 105.187 7.7941 105.743 7.61359C107.362 7.17769 109.077 7.28378 110.631 7.91589L110.231 10.8747ZM119.844 19.8612C119.847 19.3053 119.78 18.7513 119.644 18.2123C119.529 17.7356 119.325 17.2851 119.045 16.8841C118.792 16.5205 118.463 16.2172 118.082 15.9955C117.675 15.7639 117.213 15.6468 116.746 15.6565C116.279 15.6463 115.817 15.7634 115.41 15.9955C115.026 16.2166 114.694 16.5199 114.438 16.8841C114.159 17.2894 113.956 17.7426 113.838 18.2215C113.562 19.3031 113.562 20.4377 113.838 21.5193C113.958 21.9914 114.155 22.4402 114.42 22.8476C114.668 23.2255 115.001 23.5392 115.392 23.7636C115.808 23.9895 116.274 24.1031 116.746 24.0934C117.203 24.1049 117.656 23.996 118.059 23.7776C118.462 23.5591 118.802 23.2386 119.045 22.8476C119.321 22.4443 119.524 21.9945 119.644 21.5193C119.781 20.9774 119.848 20.4202 119.844 19.8612ZM123.306 19.8704C123.308 20.772 123.17 21.6683 122.897 22.527C122.634 23.3751 122.219 24.167 121.671 24.8629C121.084 25.6062 120.334 26.2006 119.478 26.5983C118.623 26.996 117.687 27.186 116.746 27.153C115.804 27.1838 114.867 26.9929 114.011 26.5954C113.154 26.1979 112.402 25.6047 111.812 24.8629C111.267 24.1653 110.851 23.3739 110.586 22.527C110.039 20.8083 110.039 18.96 110.586 17.2413C110.849 16.4035 111.261 15.6212 111.803 14.9329C112.36 14.2437 113.062 13.687 113.857 13.3023C114.759 12.8711 115.748 12.6578 116.746 12.6794C117.681 12.6533 118.61 12.8427 119.462 13.2332C120.314 13.6237 121.066 14.205 121.662 14.9329C122.207 15.6107 122.625 16.3802 122.897 17.2413C123.17 18.1024 123.306 18.9818 123.306 19.8704ZM134.255 26.8416V18.9635C134.309 18.0979 134.079 17.2383 133.601 16.5176C133.388 16.2378 133.112 16.0135 132.796 15.8637C132.48 15.7138 132.132 15.6428 131.783 15.6565C131.244 15.6503 130.715 15.7997 130.257 16.0871C129.818 16.3547 129.412 16.6746 129.048 17.0398V26.8416H125.523V13.0183H128.74L128.903 14.1176C130.012 13.1853 131.411 12.6762 132.855 12.6794C133.582 12.6794 134.246 12.7893 134.854 13.0091C135.448 13.2255 135.982 13.5839 136.408 14.0534C136.853 14.5298 137.19 15.1527 137.426 15.913C137.662 16.6825 137.78 17.5986 137.78 18.6612V26.8416H134.255ZM148.747 18.2673C148.721 17.8374 148.619 17.4156 148.447 17.0215C148.307 16.6968 148.103 16.4039 147.847 16.1604C147.407 15.7496 146.83 15.5207 146.23 15.5191C145.586 15.5308 144.967 15.7745 144.486 16.2062C144.195 16.4671 143.96 16.7838 143.793 17.1378C143.626 17.4917 143.531 17.8758 143.513 18.2673H148.747ZM143.432 20.8231C143.504 21.9865 143.868 22.8293 144.522 23.3422C145.242 23.8821 146.124 24.1569 147.021 24.1209C147.859 24.1199 148.69 23.9646 149.474 23.6629C149.761 23.548 150.041 23.4134 150.31 23.2598C150.493 23.1546 150.664 23.0286 150.819 22.8842L151.763 25.7789C151.229 26.1436 150.644 26.4275 150.028 26.6217C148.903 26.9695 147.734 27.1485 146.557 27.153C145.691 27.1561 144.831 27.0105 144.013 26.7225C143.219 26.443 142.496 25.9894 141.896 25.3942C141.261 24.7531 140.766 23.9856 140.442 23.1407C140.058 22.1173 139.873 21.0286 139.897 19.9345C139.897 18.762 140.07 17.736 140.397 16.8383C140.804 15.6075 141.59 14.5401 142.641 13.7919C143.692 13.0437 144.953 12.6539 146.239 12.6794C147.067 12.671 147.89 12.817 148.665 13.1099C149.401 13.3939 150.037 13.8428 150.573 14.4382C151.118 15.0428 151.545 15.8214 151.854 16.7833C152.172 17.736 152.327 18.8719 152.327 20.191V20.8231H143.432Z" fill="#bcbdc1"/>
</svg>
