<svg width="18" height="10" viewBox="0 0 18 10" fill="none" xmlns="http://www.w3.org/2000/svg">
<path d="M9.83317 8.33333H1.49984C1.27882 8.33333 1.06686 8.42113 0.910582 8.57741C0.754301 8.73369 0.666504 8.94565 0.666504 9.16667C0.666504 9.38768 0.754301 9.59964 0.910582 9.75592C1.06686 9.9122 1.27882 10 1.49984 10H9.83317C10.0542 10 10.2661 9.9122 10.4224 9.75592C10.5787 9.59964 10.6665 9.38768 10.6665 9.16667C10.6665 8.94565 10.5787 8.73369 10.4224 8.57741C10.2661 8.42113 10.0542 8.33333 9.83317 8.33333ZM1.49984 1.66667H16.4998C16.7209 1.66667 16.9328 1.57887 17.0891 1.42259C17.2454 1.26631 17.3332 1.05435 17.3332 0.833333C17.3332 0.61232 17.2454 0.400358 17.0891 0.244078C16.9328 0.0877975 16.7209 0 16.4998 0H1.49984C1.27882 0 1.06686 0.0877975 0.910582 0.244078C0.754301 0.400358 0.666504 0.61232 0.666504 0.833333C0.666504 1.05435 0.754301 1.26631 0.910582 1.42259C1.06686 1.57887 1.27882 1.66667 1.49984 1.66667ZM16.4998 4.16667H1.49984C1.27882 4.16667 1.06686 4.25446 0.910582 4.41074C0.754301 4.56702 0.666504 4.77899 0.666504 5C0.666504 5.22101 0.754301 5.43297 0.910582 5.58926C1.06686 5.74554 1.27882 5.83333 1.49984 5.83333H16.4998C16.7209 5.83333 16.9328 5.74554 17.0891 5.58926C17.2454 5.43297 17.3332 5.22101 17.3332 5C17.3332 4.77899 17.2454 4.56702 17.0891 4.41074C16.9328 4.25446 16.7209 4.16667 16.4998 4.16667Z" fill="#25324B"/>
</svg>
